HIERARCHY
ROOT Hips
{
	OFFSET	0.00	0.00	0.00
	CHANNELS 6 Xposition Yposition Zposition Zrotation Xrotation Yrotation
	JOINT Chest
	{
		OFFSET	0.000000	6.275751	0.000000
		CHANNELS 3 Zrotation Xrotation Yrotation
		JOINT Neck
		{
			OFFSET	0.000000	14.296947	0.000000
			CHANNELS 3 Zrotation Xrotation Yrotation
			JOINT Head
			{
				OFFSET	0.000000	2.637461	0.000000
				CHANNELS 3 Zrotation Xrotation Yrotation
				End Site
				{
					OFFSET	0.000000	4.499004	0.000000
				}
			}
		}
		JOINT LeftCollar
		{
			OFFSET	1.120000	11.362855	1.870000
			CHANNELS 3 Zrotation Xrotation Yrotation
			JOINT LeftUpArm
			{
				OFFSET	4.565688	2.019026	-1.821179
				CHANNELS 3 Zrotation Xrotation Yrotation
				JOINT LeftLowArm
				{
					OFFSET	0.219729	-10.348825	-0.061708
					CHANNELS 3 Zrotation Xrotation Yrotation
					JOINT LeftHand
					{
						OFFSET	0.087892	-10.352228	2.178217
						CHANNELS 3 Zrotation Xrotation Yrotation
						End Site
						{
							OFFSET	0.131837	-6.692379	1.711456
						}
					}
				}
			}
		}
		JOINT RightCollar
		{
			OFFSET	-1.120000	11.362855	1.870000
			CHANNELS 3 Zrotation Xrotation Yrotation
			JOINT RightUpArm
			{
				OFFSET	-4.708080	2.034554	-1.821179
				CHANNELS 3 Zrotation Xrotation Yrotation
				JOINT RightLowArm
				{
					OFFSET	-0.263676	-10.428555	-0.061708
					CHANNELS 3 Zrotation Xrotation Yrotation
					JOINT RightHand
					{
						OFFSET	0.000000	-10.255345	2.178217
						CHANNELS 3 Zrotation Xrotation Yrotation
						End Site
						{
							OFFSET	-0.140882	-6.671274	1.711456
						}
					}
				}
			}
		}
	}
	JOINT LeftUpLeg
	{
		OFFSET	3.910000	0.000000	0.000000
		CHANNELS 3 Zrotation Xrotation Yrotation
		JOINT LeftLowLeg
		{
			OFFSET	-0.441177	-17.569450	1.695613
			CHANNELS 3 Zrotation Xrotation Yrotation
			JOINT LeftFoot
			{
				OFFSET	-0.043946	-17.197315	-1.478076
				CHANNELS 3 Zrotation Xrotation Yrotation
				End Site
				{
					OFFSET	0.000000	-3.933155	5.233925
				}
			}
		}
	}
	JOINT RightUpLeg
	{
		OFFSET	-3.910000	0.000000	0.000000
		CHANNELS 3 Zrotation Xrotation Yrotation
		JOINT RightLowLeg
		{
			OFFSET	0.437741	-17.622387	1.695613
			CHANNELS 3 Zrotation Xrotation Yrotation
			JOINT RightFoot
			{
				OFFSET	0.000000	-17.140001	-1.478076
				CHANNELS 3 Zrotation Xrotation Yrotation
				End Site
				{
					OFFSET	0.000000	-4.038528	5.233925
				}
			}
		}
	}
}
MOTION
Frames: 12
Frame Time: 0.04166667
0.964393	5.495057	3.020447	-1.395376	1.774494	116.188133	-2.721842	-1.575810	-5.002126	1.779161	-1.027991	-8.812890	0.551720	16.850449	-0.005179	-31.420483	25.694885	27.648523	112.304207	-26.967739	168.527161	4.913704	1.232981	-0.095573	-2.409209	2.473366	-0.511885	27.014805	27.237217	-23.878689	-105.477875	-24.649857	-162.160721	-9.567446	10.220350	1.987336	-1.339244	2.400472	-0.287224	5.007859	8.969957	1.158498	-1.857930	-9.189477	-5.918926	-6.121405	-0.999877	0.338899	-5.849048	10.226887	-14.156230	2.336851	-9.125758	9.943105	-2.017432	-0.276512	5.209276	
0.960893	5.514477	3.026341	-1.383997	1.736186	116.177696	-2.822358	-1.229694	-4.894936	1.801812	-1.596800	-9.161824	0.652634	16.113869	0.002618	-31.781466	25.615746	28.181253	114.375114	-26.247206	167.606827	5.592747	1.210696	-0.216994	-2.070971	2.470537	-0.440052	27.329681	27.545021	-24.465069	-106.866974	-23.734503	-160.332489	-10.015206	11.338471	1.875325	-4.360344	2.432590	-0.934393	5.053906	8.952475	1.110892	-1.852461	-9.189835	-5.858998	-6.123340	-0.986672	0.340440	-5.808756	10.205359	-14.086295	2.332051	-9.127814	9.886191	-2.024781	-0.260306	5.210596	
0.958487	5.531735	3.031221	-1.416647	1.664036	116.167610	-2.905323	-1.046669	-4.782276	1.809947	-2.055637	-9.462954	0.703733	15.572678	0.009746	-31.899969	25.424311	28.539551	116.161140	-25.644466	164.718475	6.338934	1.129038	-0.337867	-1.828608	2.468838	-0.388558	27.435923	27.604155	-24.850300	-108.173599	-22.780626	-156.502960	-10.242620	12.658949	1.691359	-8.404643	2.529013	-1.796544	5.105786	8.883162	1.106229	-1.850187	-9.189383	-5.833078	-6.120401	-0.975787	0.341342	-5.753882	10.136685	-14.056830	2.330174	-9.128361	9.864347	-2.022443	-0.271166	5.209979	
0.956581	5.555831	3.037764	-1.400408	1.709255	116.124695	-3.115097	-0.768509	-4.701092	1.854794	-2.521902	-9.655350	0.766593	15.211225	0.015660	-32.552280	24.550482	29.344822	116.450836	-25.678406	157.500778	2.944922	-0.502238	-0.445411	-13.555312	2.801641	-2.855271	27.510441	27.441765	-25.113182	-109.489815	-22.006378	-150.686783	-10.104798	14.053488	1.420499	-12.735836	2.699360	-2.710292	5.065630	8.915928	1.171693	-1.851749	-9.189631	-5.852998	-6.113989	-0.969615	0.341436	-5.775218	10.148252	-14.054728	2.330768	-9.127308	9.873457	-2.023572	-0.252970	5.210741	
0.942987	5.568628	3.044165	-1.394511	1.708547	116.097221	-3.244970	-0.524189	-4.666519	1.913669	-2.928205	-9.834835	0.782392	14.776943	0.022160	-32.736763	24.196014	30.075762	116.641434	-24.974077	149.749084	0.449018	-1.106810	-0.754375	-3.956035	2.491593	-0.840142	27.640724	27.349981	-25.317883	-111.169991	-21.125370	-144.287521	-9.760741	16.033554	0.858288	-12.538157	2.690150	-2.668873	5.063333	8.898283	1.162389	-1.848018	-9.190784	-5.809877	-6.115849	-0.936275	0.345075	-5.771644	10.120971	-14.072937	2.334728	-9.127111	9.917504	-2.026819	-0.227477	5.211995	
0.924684	5.565476	3.046699	-1.401661	1.635462	116.019424	-3.244359	-0.427460	-4.612452	1.939699	-3.214753	-9.902349	0.845770	14.306361	0.031190	-32.602737	24.160925	29.989033	117.152824	-23.269520	142.578552	-0.596312	-1.243365	-1.354908	5.425152	2.517133	1.151355	27.651535	27.282751	-25.396959	-112.818604	-20.236467	-134.592728	-8.667621	18.134552	-0.050532	-19.523024	3.103690	-4.110490	5.115558	8.845831	1.144365	-1.839458	-9.190544	-5.717535	-6.115349	-0.932910	0.345399	-5.719273	10.032389	-14.128188	2.345202	-9.124227	10.033763	-2.028313	-0.164808	5.214400	
0.904546	5.561306	3.050198	-1.378696	1.593705	115.895226	-3.299214	-0.322382	-4.498330	2.004390	-3.421121	-10.073968	1.020279	13.885220	0.045437	-32.359940	24.093544	29.806980	117.426201	-20.921473	133.288559	-2.628964	-0.727465	-1.059037	6.210614	2.533990	1.317477	27.628759	27.211916	-25.377733	-114.501808	-19.396467	-122.615433	-6.639496	20.195959	-1.287856	-25.676302	3.611545	-5.332554	5.142773	8.845813	1.228779	-1.837474	-9.193149	-5.694680	-6.112099	-0.944330	0.343926	-5.713496	9.980721	-13.993412	2.347162	-9.124877	10.056578	-2.012875	-0.122530	5.214254	
0.880652	5.568284	3.057587	-1.336673	1.643776	115.805664	-3.514183	-0.114011	-4.299042	2.161021	-3.631475	-10.439709	1.125137	13.578082	0.056387	-32.142174	24.198895	29.730110	118.829529	-19.349127	126.591713	-2.796569	-0.243788	-2.024048	18.518635	3.093088	3.870522	27.548397	26.986729	-25.271797	-115.845200	-18.615805	-112.018845	-4.506628	21.342428	-2.700681	-34.289406	4.537027	-6.940503	5.093583	8.883327	1.346543	-1.841097	-9.190501	-5.735351	-6.107301	-0.924271	0.345627	-5.767516	9.982287	-13.854826	2.342909	-9.126151	10.011246	-2.006298	-0.079188	5.215043	
0.849699	5.574800	3.067892	-1.388951	1.647694	115.768280	-3.595444	-0.077551	-4.261995	2.138998	-3.726631	-10.725336	1.225415	13.401090	0.065356	-31.908728	24.105320	29.596935	120.103798	-17.690077	117.728012	-3.252051	0.345730	-1.759801	17.909214	3.052635	3.747218	27.266930	26.829348	-25.105705	-117.075806	-17.838680	-104.976105	-2.578598	22.061081	-3.740447	-37.864155	4.990555	-7.565111	5.045101	8.792085	1.411243	-1.840958	-9.191702	-5.735062	-6.088309	-0.864893	0.350178	-5.797978	9.874080	-13.844340	2.341971	-9.125805	9.999841	-1.990748	-0.018190	5.215492	
0.816309	5.580256	3.078006	-1.432302	1.655787	115.750206	-3.559629	-0.050338	-4.316511	1.979373	-3.749223	-10.933578	1.317325	13.258878	0.073661	-31.919989	23.934433	29.542429	121.488358	-16.193245	108.150055	-3.661115	0.784982	-1.239671	13.497407	2.798862	2.843302	27.240419	26.959314	-25.068575	-118.546036	-17.684978	-95.149330	-1.335978	21.939526	-4.599246	-43.516518	5.784976	-8.493150	4.961060	8.700854	1.565004	-1.840074	-9.192733	-5.727021	-6.010624	-0.756507	0.354609	-5.840147	9.780357	-13.805996	2.340935	-9.126023	9.987340	-1.985646	0.029636	5.216584	
0.787695	5.579727	3.084751	-1.480040	1.630192	115.728729	-3.486365	-0.127353	-4.232100	1.843434	-3.659116	-11.137811	1.347274	13.247664	0.075613	-31.886028	23.852713	29.414640	122.736206	-15.285429	99.257530	-3.720357	1.384597	-1.218561	14.881015	2.870815	3.128753	27.246515	26.833099	-25.009598	-119.897331	-17.412188	-85.174332	0.587545	21.980160	-5.448280	-46.561466	6.249951	-8.959991	4.952851	8.603070	1.541468	-1.835062	-9.192338	-5.671422	-6.010074	-0.705549	0.359759	-5.843424	9.675349	-13.871894	2.347103	-9.125931	10.056305	-1.970181	0.088068	5.216914	
0.755272	5.575806	3.091552	-1.558446	1.615773	115.776215	-3.404417	-0.288473	-4.271393	1.736494	-3.475281	-11.107642	1.284291	13.458303	0.067163	-31.835257	23.818947	29.098631	123.533318	-15.109123	88.829185	-2.576582	1.321462	-1.325117	13.911343	2.819642	2.928881	27.204956	26.760798	-24.892958	-121.007675	-17.335951	-74.580368	2.959546	21.687538	-6.242726	-49.648174	6.745791	-9.407839	4.925838	8.465048	1.506980	-1.835584	-9.191584	-5.673364	-6.011146	-0.648497	0.365765	-5.870745	9.558045	-13.902882	2.345379	-9.125454	10.037211	-1.964697	0.123808	5.217522	
